<svg width="152" height="23" viewBox="0 0 152 23" fill="none" xmlns="http://www.w3.org/2000/svg">
<path d="M19.1456 0.181818V22H15.1612L5.66903 8.26776H5.50923V22H0.896307V0.181818H4.9446L14.3622 13.9034H14.554V0.181818H19.1456ZM30.2651 22.3196C28.6103 22.3196 27.1792 21.968 25.9718 21.2649C24.7715 20.5547 23.8446 19.5675 23.1912 18.3033C22.5378 17.032 22.2111 15.5582 22.2111 13.8821C22.2111 12.1918 22.5378 10.7145 23.1912 9.45028C23.8446 8.17898 24.7715 7.19176 25.9718 6.48864C27.1792 5.77841 28.6103 5.4233 30.2651 5.4233C31.9199 5.4233 33.3475 5.77841 34.5478 6.48864C35.7551 7.19176 36.6855 8.17898 37.339 9.45028C37.9924 10.7145 38.3191 12.1918 38.3191 13.8821C38.3191 15.5582 37.9924 17.032 37.339 18.3033C36.6855 19.5675 35.7551 20.5547 34.5478 21.2649C33.3475 21.968 31.9199 22.3196 30.2651 22.3196ZM30.2864 18.804C31.0392 18.804 31.6678 18.5909 32.1721 18.1648C32.6763 17.7315 33.0563 17.142 33.312 16.3963C33.5748 15.6506 33.7061 14.8018 33.7061 13.8501C33.7061 12.8984 33.5748 12.0497 33.312 11.304C33.0563 10.5582 32.6763 9.96875 32.1721 9.53551C31.6678 9.10227 31.0392 8.88565 30.2864 8.88565C29.5265 8.88565 28.8873 9.10227 28.3688 9.53551C27.8574 9.96875 27.4703 10.5582 27.2076 11.304C26.9519 12.0497 26.824 12.8984 26.824 13.8501C26.824 14.8018 26.9519 15.6506 27.2076 16.3963C27.4703 17.142 27.8574 17.7315 28.3688 18.1648C28.8873 18.5909 29.5265 18.804 30.2864 18.804ZM49.9739 5.63636V9.04545H40.1195V5.63636H49.9739ZM42.3567 1.71591H46.8951V16.9716C46.8951 17.3906 46.959 17.7173 47.0868 17.9517C47.2147 18.179 47.3922 18.3388 47.6195 18.4311C47.8539 18.5234 48.1238 18.5696 48.4292 18.5696C48.6422 18.5696 48.8553 18.5518 49.0684 18.5163C49.2814 18.4737 49.4448 18.4418 49.5584 18.4205L50.2722 21.7976C50.0449 21.8686 49.7253 21.9503 49.3134 22.0426C48.9015 22.142 48.4007 22.2024 47.8113 22.2237C46.7175 22.2663 45.7587 22.1207 44.9348 21.7869C44.1181 21.4531 43.4824 20.9347 43.0279 20.2315C42.5733 19.5284 42.3496 18.6406 42.3567 17.5682V1.71591ZM60.2118 22.3196C58.5286 22.3196 57.0797 21.9787 55.8652 21.2969C54.6578 20.608 53.7275 19.6349 53.074 18.3778C52.4206 17.1136 52.0939 15.6186 52.0939 13.8928C52.0939 12.2095 52.4206 10.7322 53.074 9.46094C53.7275 8.18963 54.6472 7.19886 55.8333 6.48864C57.0265 5.77841 58.4256 5.4233 60.0307 5.4233C61.1103 5.4233 62.1152 5.5973 63.0456 5.94531C63.9831 6.28622 64.7999 6.80114 65.4959 7.49006C66.199 8.17898 66.7459 9.04545 67.1365 10.0895C67.5272 11.1264 67.7225 12.3409 67.7225 13.733V14.9794H53.905V12.1669H63.4505C63.4505 11.5135 63.3084 10.9347 63.0243 10.4304C62.7402 9.92614 62.3461 9.53196 61.8418 9.24787C61.3446 8.95668 60.7658 8.81108 60.1053 8.81108C59.4164 8.81108 58.8056 8.97088 58.2729 9.29048C57.7473 9.60298 57.3354 10.0256 57.0371 10.5582C56.7388 11.0838 56.5861 11.6697 56.579 12.3161V14.9901C56.579 15.7997 56.7282 16.4993 57.0265 17.0888C57.3319 17.6783 57.7615 18.1328 58.3155 18.4524C58.8695 18.772 59.5265 18.9318 60.2864 18.9318C60.7907 18.9318 61.2523 18.8608 61.6713 18.7188C62.0904 18.5767 62.449 18.3636 62.7473 18.0795C63.0456 17.7955 63.2729 17.4474 63.4292 17.0355L67.6266 17.3125C67.4135 18.321 66.9767 19.2017 66.3162 19.9545C65.6628 20.7003 64.8176 21.2827 63.7807 21.7017C62.7509 22.1136 61.5613 22.3196 60.2118 22.3196ZM73.1877 0.181818L78.4611 16.7585H78.6635L83.9476 0.181818H89.0613L81.54 22H75.5953L68.0634 0.181818H73.1877ZM97.2138 22.3196C95.5305 22.3196 94.0817 21.9787 92.8672 21.2969C91.6598 20.608 90.7294 19.6349 90.076 18.3778C89.4226 17.1136 89.0959 15.6186 89.0959 13.8928C89.0959 12.2095 89.4226 10.7322 90.076 9.46094C90.7294 8.18963 91.6491 7.19886 92.8352 6.48864C94.0284 5.77841 95.4276 5.4233 97.0327 5.4233C98.1122 5.4233 99.1172 5.5973 100.048 5.94531C100.985 6.28622 101.802 6.80114 102.498 7.49006C103.201 8.17898 103.748 9.04545 104.138 10.0895C104.529 11.1264 104.724 12.3409 104.724 13.733V14.9794H90.907V12.1669H100.452C100.452 11.5135 100.31 10.9347 100.026 10.4304C99.7422 9.92614 99.348 9.53196 98.8438 9.24787C98.3466 8.95668 97.7678 8.81108 97.1072 8.81108C96.4183 8.81108 95.8075 8.97088 95.2749 9.29048C94.7493 9.60298 94.3374 10.0256 94.0391 10.5582C93.7408 11.0838 93.5881 11.6697 93.581 12.3161V14.9901C93.581 15.7997 93.7301 16.4993 94.0284 17.0888C94.3338 17.6783 94.7635 18.1328 95.3175 18.4524C95.8714 18.772 96.5284 18.9318 97.2884 18.9318C97.7926 18.9318 98.2543 18.8608 98.6733 18.7188C99.0923 18.5767 99.451 18.3636 99.7493 18.0795C100.048 17.7955 100.275 17.4474 100.431 17.0355L104.629 17.3125C104.415 18.321 103.979 19.2017 103.318 19.9545C102.665 20.7003 101.82 21.2827 100.783 21.7017C99.7528 22.1136 98.5632 22.3196 97.2138 22.3196ZM107.686 22V5.63636H112.086V8.49148H112.256C112.555 7.47585 113.055 6.70881 113.759 6.19034C114.462 5.66477 115.271 5.40199 116.188 5.40199C116.415 5.40199 116.66 5.41619 116.923 5.4446C117.185 5.47301 117.416 5.51207 117.615 5.56179V9.58878C117.402 9.52486 117.107 9.46804 116.731 9.41832C116.354 9.36861 116.01 9.34375 115.697 9.34375C115.03 9.34375 114.433 9.48935 113.908 9.78054C113.389 10.0646 112.977 10.4624 112.672 10.9737C112.374 11.4851 112.224 12.0746 112.224 12.7422V22H107.686ZM133.577 10.3026L129.422 10.5582C129.351 10.2031 129.198 9.88352 128.964 9.59943C128.729 9.30824 128.42 9.07741 128.037 8.90696C127.66 8.7294 127.209 8.64062 126.684 8.64062C125.981 8.64062 125.388 8.78977 124.905 9.08807C124.422 9.37926 124.18 9.76989 124.18 10.2599C124.18 10.6506 124.336 10.9808 124.649 11.2507C124.961 11.5206 125.498 11.7372 126.258 11.9006L129.219 12.4972C130.81 12.8239 131.996 13.3494 132.778 14.0739C133.559 14.7983 133.949 15.75 133.949 16.929C133.949 18.0014 133.633 18.9425 133.001 19.7521C132.376 20.5618 131.517 21.1939 130.423 21.6484C129.336 22.0959 128.083 22.3196 126.662 22.3196C124.496 22.3196 122.77 21.8686 121.485 20.9666C120.206 20.0575 119.457 18.8217 119.237 17.2592L123.701 17.0249C123.836 17.6854 124.162 18.1896 124.681 18.5376C125.199 18.8786 125.863 19.049 126.673 19.049C127.469 19.049 128.108 18.8963 128.591 18.5909C129.081 18.2784 129.329 17.8771 129.336 17.3871C129.329 16.9751 129.155 16.6378 128.814 16.375C128.474 16.1051 127.948 15.8991 127.238 15.7571L124.404 15.1925C122.806 14.8729 121.616 14.3189 120.835 13.5305C120.061 12.7422 119.674 11.7372 119.674 10.5156C119.674 9.46449 119.958 8.55895 120.526 7.79901C121.101 7.03906 121.907 6.45312 122.944 6.04119C123.988 5.62926 125.21 5.4233 126.609 5.4233C128.676 5.4233 130.302 5.86009 131.488 6.73366C132.682 7.60724 133.378 8.79687 133.577 10.3026ZM144.265 22.3196C142.581 22.3196 141.132 21.9787 139.918 21.2969C138.711 20.608 137.78 19.6349 137.127 18.3778C136.473 17.1136 136.147 15.6186 136.147 13.8928C136.147 12.2095 136.473 10.7322 137.127 9.46094C137.78 8.18963 138.7 7.19886 139.886 6.48864C141.079 5.77841 142.478 5.4233 144.083 5.4233C145.163 5.4233 146.168 5.5973 147.098 5.94531C148.036 6.28622 148.853 6.80114 149.549 7.49006C150.252 8.17898 150.799 9.04545 151.189 10.0895C151.58 11.1264 151.775 12.3409 151.775 13.733V14.9794H137.958V12.1669H147.503C147.503 11.5135 147.361 10.9347 147.077 10.4304C146.793 9.92614 146.399 9.53196 145.895 9.24787C145.397 8.95668 144.819 8.81108 144.158 8.81108C143.469 8.81108 142.858 8.97088 142.326 9.29048C141.8 9.60298 141.388 10.0256 141.09 10.5582C140.792 11.0838 140.639 11.6697 140.632 12.3161V14.9901C140.632 15.7997 140.781 16.4993 141.079 17.0888C141.385 17.6783 141.814 18.1328 142.368 18.4524C142.922 18.772 143.579 18.9318 144.339 18.9318C144.843 18.9318 145.305 18.8608 145.724 18.7188C146.143 18.5767 146.502 18.3636 146.8 18.0795C147.098 17.7955 147.326 17.4474 147.482 17.0355L151.679 17.3125C151.466 18.321 151.029 19.2017 150.369 19.9545C149.716 20.7003 148.87 21.2827 147.833 21.7017C146.804 22.1136 145.614 22.3196 144.265 22.3196Z" fill="white"/>
</svg>
