<svg width="45" height="48" viewBox="0 0 45 48" fill="none" xmlns="http://www.w3.org/2000/svg">
<g clip-path="url(#clip0_25_597)">
<path d="M45 32.9764V3.69152C45 1.65517 43.344 0 41.3067 0H17.8825C15.8486 0 14.1926 1.65517 14.1926 3.69152V9.00043H3.86509C1.73156 9.00043 0 10.7346 0 12.8636V44.8682C0 46.5886 1.42579 48 3.17453 48H29.7629V46.8256H3.81699C2.56299 46.8256 1.53573 45.8126 1.53573 44.5763C1.53573 43.3332 2.56299 42.3202 3.81699 42.3202H31.1509V38.2132H44.361V37.025H31.1509V32.9764H45ZM29.7767 40.9466H1.37426V12.8636C1.37426 11.4901 2.49084 10.374 3.86509 10.374H14.5843V35.0402C14.5843 36.7847 16.0135 38.2132 17.7588 38.2132H29.7767V40.9466ZM29.7767 37.025H18.4047C17.776 37.025 17.2057 36.7675 16.7934 36.3554C16.3777 35.9399 16.1235 35.3699 16.1235 34.7415C16.1235 33.4881 17.1473 32.4613 18.4047 32.4613H29.7767V37.025ZM27.2893 9.00043H15.2233V3.69152C15.2233 2.22521 16.4155 1.03019 17.8825 1.03019H41.3067C42.7737 1.03019 43.9693 2.22521 43.9693 3.69152V31.9462H31.1509V12.8636C31.1509 10.7346 29.4159 9.00043 27.2893 9.00043Z" fill="white"/>
</g>
<defs>
<clipPath id="clip0_25_597">
<rect width="45" height="48" fill="white"/>
</clipPath>
</defs>
</svg>
